# xmcd
#
# Track frame offsets:
#      182
#      14660
#      40785
#      51760
#      75705
#      85690
#      109482
#      122430
#      149005
#      168320
#      185760
#      199105
#      223125
#      244045
#      265687
# 
# Disc length: 3797 seconds
#
# Revision: 2
# Processed by: cddbd v1.4PL0 Copyright (c) Steve Scherf et al.
#
# Submitted via: FreeRIP 1.20
#
DISCID=d70ed30f
DTITLE=Varios - Rock Nacional - La colecci n Vol 34
DYEAR=1900
DGENRE=Rock
TTITLE0=Los Abuelos de la nada - En L nea - 
TTITLE1=Luca Prodan - Regtest - 
TTITLE2=La Pelotas - Vacas y Bifes - 
TTITLE3=Dulces 16 - Ley del rock and roll - 
TTITLE4=David Lebon - 32 macetas - 
TTITLE5=Git - Es por amor - 
TTITLE6=Man Ray - Caribe sur - 
TTITLE7=Los Helicopteros - Radio Venus llamando - 
TTITLE8=Miguel Mateo- Zas - Mujer sin ley - 
TTITLE9=Raul Porchetto - Televisi n - 
TTITLE10=Leon Gieco - Soy un pobre agujero - 
TTITLE11=Moris - Pato trabaja en una carnicer a - 
TTITLE12=Piero - Un hombre com n - 
TTITLE13=Miguel Cantilo - Padre Francisco - 
TTITLE14=Litto Nebbia - Nadie es tan importante como uno cree - 
EXTD=
EXTT0=
EXTT1=
EXTT2=
EXTT3=
EXTT4=
EXTT5=
EXTT6=
EXTT7=
EXTT8=
EXTT9=
EXTT10=
EXTT11=
EXTT12=
EXTT13=
EXTT14=
PLAYORDER=
